<mxfile host="app.diagrams.net" modified="2022-12-28T03:43:01.403Z" agent="5.0 (Macintosh; Intel Mac OS X 10_15_7) AppleWebKit/537.36 (KHTML, like Gecko) Chrome/108.0.0.0 Safari/537.36" etag="Cv4cWG1MFFMxzxjfLZiL" version="20.5.3" type="github">
  <diagram id="9VdMS6EmZsyXKviYvaVq" name="第 1 页">
    <mxGraphModel dx="2249" dy="1490" grid="1" gridSize="10" guides="1" tooltips="1" connect="1" arrows="1" fold="1" page="0" pageScale="1" pageWidth="827" pageHeight="1169" math="0" shadow="0">
      <root>
        <mxCell id="0" />
        <mxCell id="1" parent="0" />
        <mxCell id="s2QFNlOFIXtIQs9YiOlL-131" value="TOPIC" style="rounded=0;whiteSpace=wrap;html=1;dashed=1;strokeColor=#FFB366;align=left;verticalAlign=top;fontSize=22;fontColor=#FFB366;strokeWidth=3;" vertex="1" parent="1">
          <mxGeometry x="-300" y="90" width="540" height="160" as="geometry" />
        </mxCell>
        <mxCell id="s2QFNlOFIXtIQs9YiOlL-130" value="APP" style="rounded=0;whiteSpace=wrap;html=1;dashed=1;strokeColor=#CC00CC;align=left;verticalAlign=top;fontSize=22;fontColor=#FFB366;strokeWidth=3;" vertex="1" parent="1">
          <mxGeometry x="-605" y="90" width="275" height="160" as="geometry" />
        </mxCell>
        <mxCell id="s2QFNlOFIXtIQs9YiOlL-129" value="WMB" style="rounded=0;whiteSpace=wrap;html=1;dashed=1;strokeColor=#E5CCFF;align=left;verticalAlign=top;fontSize=22;fontColor=#FFB366;strokeWidth=3;" vertex="1" parent="1">
          <mxGeometry x="250" y="90" width="350" height="270" as="geometry" />
        </mxCell>
        <mxCell id="s2QFNlOFIXtIQs9YiOlL-128" value="SCF-resumeApi" style="rounded=0;whiteSpace=wrap;html=1;dashed=1;strokeColor=#66B2FF;align=left;verticalAlign=top;fontSize=22;fontColor=#FFB366;strokeWidth=3;" vertex="1" parent="1">
          <mxGeometry x="-205" y="430" width="395" height="113" as="geometry" />
        </mxCell>
        <mxCell id="s2QFNlOFIXtIQs9YiOlL-74" value="SCF-resumeDao" style="rounded=0;whiteSpace=wrap;html=1;dashed=1;strokeColor=#97D077;align=left;verticalAlign=top;fontSize=22;fontColor=#FFB366;strokeWidth=3;" vertex="1" parent="1">
          <mxGeometry x="-415" y="-200" width="200" height="210" as="geometry" />
        </mxCell>
        <mxCell id="s2QFNlOFIXtIQs9YiOlL-65" value="SCF-resumeDao" style="rounded=0;whiteSpace=wrap;html=1;dashed=1;strokeColor=#97D077;align=left;verticalAlign=top;fontSize=22;fontColor=#FFB366;strokeWidth=3;" vertex="1" parent="1">
          <mxGeometry x="-190" y="-200" width="200" height="210" as="geometry" />
        </mxCell>
        <mxCell id="s2QFNlOFIXtIQs9YiOlL-64" value="SCF-resumeDao" style="rounded=0;whiteSpace=wrap;html=1;dashed=1;strokeColor=#97D077;align=left;verticalAlign=top;fontSize=22;fontColor=#FFB366;strokeWidth=3;" vertex="1" parent="1">
          <mxGeometry x="-415" y="-333" width="200" height="113" as="geometry" />
        </mxCell>
        <mxCell id="s2QFNlOFIXtIQs9YiOlL-63" value="SCF-resumeApi" style="rounded=0;whiteSpace=wrap;html=1;dashed=1;strokeColor=#66B2FF;align=left;verticalAlign=top;fontSize=22;fontColor=#FFB366;strokeWidth=3;" vertex="1" parent="1">
          <mxGeometry x="-190" y="-333" width="200" height="113" as="geometry" />
        </mxCell>
        <mxCell id="s2QFNlOFIXtIQs9YiOlL-56" value="WMB" style="rounded=0;whiteSpace=wrap;html=1;dashed=1;strokeColor=#E5CCFF;align=left;verticalAlign=top;fontSize=22;fontColor=#FFB366;strokeWidth=3;" vertex="1" parent="1">
          <mxGeometry x="20" y="-440" width="350" height="220" as="geometry" />
        </mxCell>
        <mxCell id="s2QFNlOFIXtIQs9YiOlL-43" value="ESB-108052" style="rounded=0;whiteSpace=wrap;html=1;dashed=1;strokeColor=#FFB366;align=left;verticalAlign=top;fontSize=22;fontColor=#FFB366;strokeWidth=3;" vertex="1" parent="1">
          <mxGeometry x="-190" y="-440" width="200" height="100" as="geometry" />
        </mxCell>
        <mxCell id="s2QFNlOFIXtIQs9YiOlL-40" value="ESB-108052" style="rounded=0;whiteSpace=wrap;html=1;dashed=1;strokeColor=#FFB366;align=left;verticalAlign=top;fontSize=22;fontColor=#FFB366;strokeWidth=3;" vertex="1" parent="1">
          <mxGeometry x="-415" y="-440" width="200" height="100" as="geometry" />
        </mxCell>
        <mxCell id="s2QFNlOFIXtIQs9YiOlL-39" value="APP" style="rounded=0;whiteSpace=wrap;html=1;dashed=1;strokeColor=#CC00CC;align=left;verticalAlign=top;fontSize=22;fontColor=#FFB366;strokeWidth=3;" vertex="1" parent="1">
          <mxGeometry x="-630" y="-440" width="200" height="100" as="geometry" />
        </mxCell>
        <mxCell id="s2QFNlOFIXtIQs9YiOlL-30" value="SCF-resumeDao" style="rounded=0;whiteSpace=wrap;html=1;dashed=1;strokeColor=#97D077;align=left;verticalAlign=top;fontSize=22;fontColor=#FFB366;strokeWidth=3;" vertex="1" parent="1">
          <mxGeometry x="300" y="-640" width="180" height="100" as="geometry" />
        </mxCell>
        <mxCell id="s2QFNlOFIXtIQs9YiOlL-29" value="SCF-resumeApi" style="rounded=0;whiteSpace=wrap;html=1;dashed=1;strokeColor=#66B2FF;align=left;verticalAlign=top;fontSize=22;fontColor=#FFB366;strokeWidth=3;" vertex="1" parent="1">
          <mxGeometry x="20" y="-640" width="260" height="100" as="geometry" />
        </mxCell>
        <mxCell id="s2QFNlOFIXtIQs9YiOlL-21" value="WF-PC" style="rounded=0;whiteSpace=wrap;html=1;dashed=1;strokeColor=#FF3399;align=left;verticalAlign=top;fontSize=22;fontColor=#FFB366;strokeWidth=3;" vertex="1" parent="1">
          <mxGeometry x="-620" y="-640" width="630" height="100" as="geometry" />
        </mxCell>
        <mxCell id="s2QFNlOFIXtIQs9YiOlL-4" style="edgeStyle=orthogonalEdgeStyle;rounded=0;orthogonalLoop=1;jettySize=auto;html=1;fontSize=20;" edge="1" parent="1" source="s2QFNlOFIXtIQs9YiOlL-5" target="s2QFNlOFIXtIQs9YiOlL-9">
          <mxGeometry relative="1" as="geometry" />
        </mxCell>
        <mxCell id="s2QFNlOFIXtIQs9YiOlL-5" value="手工创建" style="rounded=0;whiteSpace=wrap;html=1;fontSize=20;fillColor=#dae8fc;strokeColor=#6c8ebf;" vertex="1" parent="1">
          <mxGeometry x="-410" y="-600" width="170" height="40" as="geometry" />
        </mxCell>
        <mxCell id="s2QFNlOFIXtIQs9YiOlL-24" value="" style="edgeStyle=orthogonalEdgeStyle;rounded=0;orthogonalLoop=1;jettySize=auto;html=1;fontSize=22;fontColor=#FFB366;" edge="1" parent="1" source="s2QFNlOFIXtIQs9YiOlL-9" target="s2QFNlOFIXtIQs9YiOlL-23">
          <mxGeometry relative="1" as="geometry" />
        </mxCell>
        <mxCell id="s2QFNlOFIXtIQs9YiOlL-9" value="求职意向模块期望职位支持填写5个(参数校验)" style="rounded=0;whiteSpace=wrap;html=1;fontSize=20;fillColor=#e1d5e7;strokeColor=#9673a6;" vertex="1" parent="1">
          <mxGeometry x="-220" y="-605" width="220" height="50" as="geometry" />
        </mxCell>
        <mxCell id="s2QFNlOFIXtIQs9YiOlL-10" style="edgeStyle=orthogonalEdgeStyle;rounded=0;orthogonalLoop=1;jettySize=auto;html=1;entryX=0;entryY=0.5;entryDx=0;entryDy=0;fontSize=20;" edge="1" parent="1" source="s2QFNlOFIXtIQs9YiOlL-12" target="s2QFNlOFIXtIQs9YiOlL-14">
          <mxGeometry relative="1" as="geometry" />
        </mxCell>
        <mxCell id="s2QFNlOFIXtIQs9YiOlL-12" value="" style="image;html=1;image=img/lib/clip_art/people/Suit_Man_128x128.png;fontSize=20;" vertex="1" parent="1">
          <mxGeometry x="-720" y="-620" width="80" height="80" as="geometry" />
        </mxCell>
        <mxCell id="s2QFNlOFIXtIQs9YiOlL-13" style="edgeStyle=orthogonalEdgeStyle;rounded=0;orthogonalLoop=1;jettySize=auto;html=1;entryX=0;entryY=0.5;entryDx=0;entryDy=0;fontSize=20;" edge="1" parent="1" source="s2QFNlOFIXtIQs9YiOlL-14" target="s2QFNlOFIXtIQs9YiOlL-5">
          <mxGeometry relative="1" as="geometry" />
        </mxCell>
        <mxCell id="s2QFNlOFIXtIQs9YiOlL-14" value="邀约管理-创建简历" style="rounded=0;whiteSpace=wrap;html=1;fontSize=20;fillColor=#f8cecc;strokeColor=#b85450;" vertex="1" parent="1">
          <mxGeometry x="-600" y="-600" width="170" height="40" as="geometry" />
        </mxCell>
        <mxCell id="s2QFNlOFIXtIQs9YiOlL-28" style="edgeStyle=orthogonalEdgeStyle;rounded=0;orthogonalLoop=1;jettySize=auto;html=1;entryX=0.021;entryY=0.5;entryDx=0;entryDy=0;entryPerimeter=0;fontSize=22;fontColor=#FFB366;" edge="1" parent="1" source="s2QFNlOFIXtIQs9YiOlL-23" target="s2QFNlOFIXtIQs9YiOlL-27">
          <mxGeometry relative="1" as="geometry" />
        </mxCell>
        <mxCell id="s2QFNlOFIXtIQs9YiOlL-23" value="保存简历实体" style="rounded=0;whiteSpace=wrap;html=1;fontSize=20;fillColor=#e1d5e7;strokeColor=#9673a6;" vertex="1" parent="1">
          <mxGeometry x="90" y="-605" width="160" height="50" as="geometry" />
        </mxCell>
        <mxCell id="s2QFNlOFIXtIQs9YiOlL-27" value="" style="aspect=fixed;html=1;points=[];align=center;image;fontSize=12;image=img/lib/azure2/databases/Azure_Database_MySQL_Server.svg;dashed=1;strokeColor=#FFB366;fontColor=#FFB366;" vertex="1" parent="1">
          <mxGeometry x="330" y="-612" width="48" height="64" as="geometry" />
        </mxCell>
        <mxCell id="s2QFNlOFIXtIQs9YiOlL-31" value="&lt;font color=&quot;#000000&quot;&gt;邀约管理-创建简历优化&lt;/font&gt;" style="text;html=1;align=center;verticalAlign=middle;resizable=0;points=[];autosize=1;strokeColor=none;fillColor=none;fontSize=22;fontColor=#FFB366;" vertex="1" parent="1">
          <mxGeometry x="-720" y="-680" width="250" height="40" as="geometry" />
        </mxCell>
        <mxCell id="s2QFNlOFIXtIQs9YiOlL-32" value="&lt;font color=&quot;#000000&quot;&gt;恒星简历-更新入库&lt;/font&gt;" style="text;html=1;align=center;verticalAlign=middle;resizable=0;points=[];autosize=1;strokeColor=none;fillColor=none;fontSize=22;fontColor=#FFB366;" vertex="1" parent="1">
          <mxGeometry x="-720" y="-480" width="210" height="40" as="geometry" />
        </mxCell>
        <mxCell id="s2QFNlOFIXtIQs9YiOlL-35" style="edgeStyle=orthogonalEdgeStyle;rounded=0;orthogonalLoop=1;jettySize=auto;html=1;entryX=0;entryY=0.5;entryDx=0;entryDy=0;fontSize=22;fontColor=#000000;" edge="1" parent="1" source="s2QFNlOFIXtIQs9YiOlL-33" target="s2QFNlOFIXtIQs9YiOlL-34">
          <mxGeometry relative="1" as="geometry" />
        </mxCell>
        <mxCell id="s2QFNlOFIXtIQs9YiOlL-33" value="" style="image;html=1;image=img/lib/clip_art/people/Suit_Man_128x128.png;fontSize=20;" vertex="1" parent="1">
          <mxGeometry x="-720" y="-420" width="80" height="80" as="geometry" />
        </mxCell>
        <mxCell id="s2QFNlOFIXtIQs9YiOlL-38" value="" style="edgeStyle=orthogonalEdgeStyle;rounded=0;orthogonalLoop=1;jettySize=auto;html=1;fontSize=22;fontColor=#000000;" edge="1" parent="1" source="s2QFNlOFIXtIQs9YiOlL-34" target="s2QFNlOFIXtIQs9YiOlL-37">
          <mxGeometry relative="1" as="geometry" />
        </mxCell>
        <mxCell id="s2QFNlOFIXtIQs9YiOlL-34" value="C端更新简历" style="rounded=0;whiteSpace=wrap;html=1;fontSize=20;fillColor=#f8cecc;strokeColor=#b85450;" vertex="1" parent="1">
          <mxGeometry x="-610" y="-400" width="170" height="40" as="geometry" />
        </mxCell>
        <mxCell id="s2QFNlOFIXtIQs9YiOlL-42" value="" style="edgeStyle=orthogonalEdgeStyle;rounded=0;orthogonalLoop=1;jettySize=auto;html=1;fontSize=22;fontColor=#000000;" edge="1" parent="1" source="s2QFNlOFIXtIQs9YiOlL-37" target="s2QFNlOFIXtIQs9YiOlL-41">
          <mxGeometry relative="1" as="geometry" />
        </mxCell>
        <mxCell id="s2QFNlOFIXtIQs9YiOlL-37" value="恒星发送ESB消息" style="rounded=0;whiteSpace=wrap;html=1;fontSize=20;fillColor=#f8cecc;strokeColor=#b85450;" vertex="1" parent="1">
          <mxGeometry x="-400" y="-400" width="170" height="40" as="geometry" />
        </mxCell>
        <mxCell id="s2QFNlOFIXtIQs9YiOlL-49" value="" style="edgeStyle=orthogonalEdgeStyle;rounded=0;orthogonalLoop=1;jettySize=auto;html=1;fontSize=22;fontColor=#000000;" edge="1" parent="1" source="s2QFNlOFIXtIQs9YiOlL-41" target="s2QFNlOFIXtIQs9YiOlL-48">
          <mxGeometry relative="1" as="geometry" />
        </mxCell>
        <mxCell id="s2QFNlOFIXtIQs9YiOlL-41" value="魔方消费ESB消息" style="rounded=0;whiteSpace=wrap;html=1;fontSize=20;fillColor=#f8cecc;strokeColor=#b85450;" vertex="1" parent="1">
          <mxGeometry x="-170" y="-400" width="170" height="40" as="geometry" />
        </mxCell>
        <mxCell id="s2QFNlOFIXtIQs9YiOlL-51" value="" style="edgeStyle=orthogonalEdgeStyle;rounded=0;orthogonalLoop=1;jettySize=auto;html=1;fontSize=22;fontColor=#000000;" edge="1" parent="1" source="s2QFNlOFIXtIQs9YiOlL-48" target="s2QFNlOFIXtIQs9YiOlL-50">
          <mxGeometry relative="1" as="geometry" />
        </mxCell>
        <mxCell id="s2QFNlOFIXtIQs9YiOlL-52" value="存在" style="edgeLabel;html=1;align=center;verticalAlign=middle;resizable=0;points=[];fontSize=22;fontColor=#000000;" vertex="1" connectable="0" parent="s2QFNlOFIXtIQs9YiOlL-51">
          <mxGeometry x="-0.2667" relative="1" as="geometry">
            <mxPoint as="offset" />
          </mxGeometry>
        </mxCell>
        <mxCell id="s2QFNlOFIXtIQs9YiOlL-54" value="" style="edgeStyle=orthogonalEdgeStyle;rounded=0;orthogonalLoop=1;jettySize=auto;html=1;fontSize=22;fontColor=#000000;" edge="1" parent="1" source="s2QFNlOFIXtIQs9YiOlL-48" target="s2QFNlOFIXtIQs9YiOlL-53">
          <mxGeometry relative="1" as="geometry" />
        </mxCell>
        <mxCell id="s2QFNlOFIXtIQs9YiOlL-55" value="不存在" style="edgeLabel;html=1;align=center;verticalAlign=middle;resizable=0;points=[];fontSize=22;fontColor=#000000;" vertex="1" connectable="0" parent="s2QFNlOFIXtIQs9YiOlL-54">
          <mxGeometry x="-0.2667" relative="1" as="geometry">
            <mxPoint as="offset" />
          </mxGeometry>
        </mxCell>
        <mxCell id="s2QFNlOFIXtIQs9YiOlL-48" value="魔方是否存在" style="rhombus;whiteSpace=wrap;html=1;fontSize=20;fillColor=#f8cecc;strokeColor=#b85450;rounded=0;" vertex="1" parent="1">
          <mxGeometry x="90" y="-420" width="80" height="80" as="geometry" />
        </mxCell>
        <mxCell id="s2QFNlOFIXtIQs9YiOlL-58" value="" style="edgeStyle=orthogonalEdgeStyle;rounded=0;orthogonalLoop=1;jettySize=auto;html=1;fontSize=22;fontColor=#000000;" edge="1" parent="1" source="s2QFNlOFIXtIQs9YiOlL-50" target="s2QFNlOFIXtIQs9YiOlL-57">
          <mxGeometry relative="1" as="geometry" />
        </mxCell>
        <mxCell id="s2QFNlOFIXtIQs9YiOlL-50" value="调取恒星获取简历详情接口" style="whiteSpace=wrap;html=1;fontSize=20;fillColor=#f8cecc;strokeColor=#b85450;rounded=0;" vertex="1" parent="1">
          <mxGeometry x="40" y="-290" width="180" height="50" as="geometry" />
        </mxCell>
        <mxCell id="s2QFNlOFIXtIQs9YiOlL-53" value="舍弃" style="whiteSpace=wrap;html=1;fontSize=20;fillColor=#f8cecc;strokeColor=#b85450;rounded=0;" vertex="1" parent="1">
          <mxGeometry x="270" y="-400" width="80" height="40" as="geometry" />
        </mxCell>
        <mxCell id="s2QFNlOFIXtIQs9YiOlL-60" style="edgeStyle=orthogonalEdgeStyle;rounded=0;orthogonalLoop=1;jettySize=auto;html=1;fontSize=22;fontColor=#000000;" edge="1" parent="1" source="s2QFNlOFIXtIQs9YiOlL-57" target="s2QFNlOFIXtIQs9YiOlL-59">
          <mxGeometry relative="1" as="geometry" />
        </mxCell>
        <mxCell id="s2QFNlOFIXtIQs9YiOlL-62" style="edgeStyle=orthogonalEdgeStyle;rounded=0;orthogonalLoop=1;jettySize=auto;html=1;fontSize=22;fontColor=#000000;" edge="1" parent="1" source="s2QFNlOFIXtIQs9YiOlL-57" target="s2QFNlOFIXtIQs9YiOlL-61">
          <mxGeometry relative="1" as="geometry" />
        </mxCell>
        <mxCell id="s2QFNlOFIXtIQs9YiOlL-57" value="转换魔方简历实体" style="whiteSpace=wrap;html=1;fontSize=20;fillColor=#f8cecc;strokeColor=#b85450;rounded=0;" vertex="1" parent="1">
          <mxGeometry x="-180" y="-290" width="180" height="50" as="geometry" />
        </mxCell>
        <mxCell id="s2QFNlOFIXtIQs9YiOlL-72" style="edgeStyle=orthogonalEdgeStyle;rounded=0;orthogonalLoop=1;jettySize=auto;html=1;entryX=0.671;entryY=-0.008;entryDx=0;entryDy=0;entryPerimeter=0;fontSize=22;fontColor=#000000;" edge="1" parent="1" source="s2QFNlOFIXtIQs9YiOlL-59" target="s2QFNlOFIXtIQs9YiOlL-71">
          <mxGeometry relative="1" as="geometry" />
        </mxCell>
        <mxCell id="s2QFNlOFIXtIQs9YiOlL-59" value="" style="aspect=fixed;html=1;points=[];align=center;image;fontSize=12;image=img/lib/azure2/databases/Azure_Database_MySQL_Server.svg;dashed=1;strokeColor=#FFB366;fontColor=#000000;" vertex="1" parent="1">
          <mxGeometry x="-300" y="-297" width="48" height="64" as="geometry" />
        </mxCell>
        <mxCell id="s2QFNlOFIXtIQs9YiOlL-73" style="edgeStyle=orthogonalEdgeStyle;rounded=0;orthogonalLoop=1;jettySize=auto;html=1;fontSize=22;fontColor=#000000;" edge="1" parent="1" source="s2QFNlOFIXtIQs9YiOlL-61" target="s2QFNlOFIXtIQs9YiOlL-71">
          <mxGeometry relative="1" as="geometry" />
        </mxCell>
        <mxCell id="s2QFNlOFIXtIQs9YiOlL-61" value="&lt;span style=&quot;font-size: 19px;&quot;&gt;WCS&lt;/span&gt;" style="sketch=0;outlineConnect=0;fontColor=#232F3E;gradientColor=none;fillColor=#D45B07;strokeColor=none;dashed=0;verticalLabelPosition=bottom;verticalAlign=top;align=center;html=1;fontSize=12;fontStyle=0;aspect=fixed;pointerEvents=1;shape=mxgraph.aws4.ecs_service;" vertex="1" parent="1">
          <mxGeometry x="-114.5" y="-169.99999999999994" width="49" height="60.31" as="geometry" />
        </mxCell>
        <mxCell id="s2QFNlOFIXtIQs9YiOlL-76" style="edgeStyle=orthogonalEdgeStyle;rounded=0;orthogonalLoop=1;jettySize=auto;html=1;fontSize=22;fontColor=#000000;" edge="1" parent="1" source="s2QFNlOFIXtIQs9YiOlL-71" target="s2QFNlOFIXtIQs9YiOlL-75">
          <mxGeometry relative="1" as="geometry" />
        </mxCell>
        <mxCell id="s2QFNlOFIXtIQs9YiOlL-71" value="记录日志" style="rounded=0;whiteSpace=wrap;html=1;fontSize=20;fillColor=#f8cecc;strokeColor=#b85450;" vertex="1" parent="1">
          <mxGeometry x="-390" y="-159.84" width="170" height="40" as="geometry" />
        </mxCell>
        <mxCell id="s2QFNlOFIXtIQs9YiOlL-75" value="" style="aspect=fixed;html=1;points=[];align=center;image;fontSize=12;image=img/lib/azure2/databases/Azure_Database_MySQL_Server.svg;dashed=1;strokeColor=#FFB366;fontColor=#000000;" vertex="1" parent="1">
          <mxGeometry x="-329" y="-70" width="48" height="64" as="geometry" />
        </mxCell>
        <mxCell id="s2QFNlOFIXtIQs9YiOlL-77" value="&lt;font color=&quot;#000000&quot;&gt;用户行为-更新期望职位&lt;/font&gt;" style="text;html=1;align=center;verticalAlign=middle;resizable=0;points=[];autosize=1;strokeColor=none;fillColor=none;fontSize=22;fontColor=#FFB366;" vertex="1" parent="1">
          <mxGeometry x="-720" y="40" width="250" height="40" as="geometry" />
        </mxCell>
        <mxCell id="s2QFNlOFIXtIQs9YiOlL-80" style="edgeStyle=orthogonalEdgeStyle;rounded=0;orthogonalLoop=1;jettySize=auto;html=1;fontSize=22;fontColor=#000000;" edge="1" parent="1" source="s2QFNlOFIXtIQs9YiOlL-78" target="s2QFNlOFIXtIQs9YiOlL-79">
          <mxGeometry relative="1" as="geometry" />
        </mxCell>
        <mxCell id="s2QFNlOFIXtIQs9YiOlL-85" style="edgeStyle=orthogonalEdgeStyle;rounded=0;orthogonalLoop=1;jettySize=auto;html=1;entryX=0;entryY=0.5;entryDx=0;entryDy=0;fontSize=22;fontColor=#000000;" edge="1" parent="1" source="s2QFNlOFIXtIQs9YiOlL-78" target="s2QFNlOFIXtIQs9YiOlL-84">
          <mxGeometry relative="1" as="geometry" />
        </mxCell>
        <mxCell id="s2QFNlOFIXtIQs9YiOlL-78" value="" style="image;html=1;image=img/lib/clip_art/people/Suit_Man_128x128.png;fontSize=20;" vertex="1" parent="1">
          <mxGeometry x="-710" y="140" width="80" height="80" as="geometry" />
        </mxCell>
        <mxCell id="s2QFNlOFIXtIQs9YiOlL-87" value="" style="edgeStyle=orthogonalEdgeStyle;rounded=0;orthogonalLoop=1;jettySize=auto;html=1;fontSize=22;fontColor=#000000;" edge="1" parent="1" source="s2QFNlOFIXtIQs9YiOlL-79" target="s2QFNlOFIXtIQs9YiOlL-86">
          <mxGeometry relative="1" as="geometry" />
        </mxCell>
        <mxCell id="s2QFNlOFIXtIQs9YiOlL-79" value="C端用户58APP行为" style="rounded=0;whiteSpace=wrap;html=1;fontSize=20;fillColor=#f8cecc;strokeColor=#b85450;" vertex="1" parent="1">
          <mxGeometry x="-560" y="130" width="210" height="40" as="geometry" />
        </mxCell>
        <mxCell id="s2QFNlOFIXtIQs9YiOlL-90" style="edgeStyle=orthogonalEdgeStyle;rounded=0;orthogonalLoop=1;jettySize=auto;html=1;entryX=0;entryY=0.5;entryDx=0;entryDy=0;fontSize=22;fontColor=#000000;" edge="1" parent="1" source="s2QFNlOFIXtIQs9YiOlL-84" target="s2QFNlOFIXtIQs9YiOlL-89">
          <mxGeometry relative="1" as="geometry" />
        </mxCell>
        <mxCell id="s2QFNlOFIXtIQs9YiOlL-84" value="C端用户赶集APP行为" style="rounded=0;whiteSpace=wrap;html=1;fontSize=20;fillColor=#f8cecc;strokeColor=#b85450;" vertex="1" parent="1">
          <mxGeometry x="-560" y="190" width="210" height="40" as="geometry" />
        </mxCell>
        <mxCell id="s2QFNlOFIXtIQs9YiOlL-92" value="" style="edgeStyle=orthogonalEdgeStyle;rounded=0;orthogonalLoop=1;jettySize=auto;html=1;fontSize=22;fontColor=#000000;" edge="1" parent="1" source="s2QFNlOFIXtIQs9YiOlL-86" target="s2QFNlOFIXtIQs9YiOlL-91">
          <mxGeometry relative="1" as="geometry" />
        </mxCell>
        <mxCell id="s2QFNlOFIXtIQs9YiOlL-86" value="发送kafka消息" style="rounded=0;whiteSpace=wrap;html=1;fontSize=20;fillColor=#f8cecc;strokeColor=#b85450;" vertex="1" parent="1">
          <mxGeometry x="-281" y="130" width="210" height="40" as="geometry" />
        </mxCell>
        <mxCell id="s2QFNlOFIXtIQs9YiOlL-94" value="" style="edgeStyle=orthogonalEdgeStyle;rounded=0;orthogonalLoop=1;jettySize=auto;html=1;fontSize=22;fontColor=#000000;" edge="1" parent="1" source="s2QFNlOFIXtIQs9YiOlL-89" target="s2QFNlOFIXtIQs9YiOlL-93">
          <mxGeometry relative="1" as="geometry" />
        </mxCell>
        <mxCell id="s2QFNlOFIXtIQs9YiOlL-89" value="发送kafka消息" style="rounded=0;whiteSpace=wrap;html=1;fontSize=20;fillColor=#f8cecc;strokeColor=#b85450;" vertex="1" parent="1">
          <mxGeometry x="-281" y="190" width="210" height="40" as="geometry" />
        </mxCell>
        <mxCell id="s2QFNlOFIXtIQs9YiOlL-99" style="edgeStyle=orthogonalEdgeStyle;rounded=0;orthogonalLoop=1;jettySize=auto;html=1;entryX=0;entryY=0.5;entryDx=0;entryDy=0;fontSize=22;fontColor=#000000;" edge="1" parent="1" source="s2QFNlOFIXtIQs9YiOlL-91" target="s2QFNlOFIXtIQs9YiOlL-98">
          <mxGeometry relative="1" as="geometry" />
        </mxCell>
        <mxCell id="s2QFNlOFIXtIQs9YiOlL-91" value="魔方消费kafka消息" style="rounded=0;whiteSpace=wrap;html=1;fontSize=20;fillColor=#f8cecc;strokeColor=#b85450;" vertex="1" parent="1">
          <mxGeometry x="9" y="130" width="210" height="40" as="geometry" />
        </mxCell>
        <mxCell id="s2QFNlOFIXtIQs9YiOlL-100" style="edgeStyle=orthogonalEdgeStyle;rounded=0;orthogonalLoop=1;jettySize=auto;html=1;entryX=0;entryY=0.5;entryDx=0;entryDy=0;fontSize=22;fontColor=#000000;" edge="1" parent="1" source="s2QFNlOFIXtIQs9YiOlL-93" target="s2QFNlOFIXtIQs9YiOlL-98">
          <mxGeometry relative="1" as="geometry" />
        </mxCell>
        <mxCell id="s2QFNlOFIXtIQs9YiOlL-93" value="魔方消费kafka消息" style="rounded=0;whiteSpace=wrap;html=1;fontSize=20;fillColor=#f8cecc;strokeColor=#b85450;" vertex="1" parent="1">
          <mxGeometry x="9" y="190" width="210" height="40" as="geometry" />
        </mxCell>
        <mxCell id="s2QFNlOFIXtIQs9YiOlL-102" value="" style="edgeStyle=orthogonalEdgeStyle;rounded=0;orthogonalLoop=1;jettySize=auto;html=1;fontSize=22;fontColor=#000000;" edge="1" parent="1" source="s2QFNlOFIXtIQs9YiOlL-98" target="s2QFNlOFIXtIQs9YiOlL-101">
          <mxGeometry relative="1" as="geometry" />
        </mxCell>
        <mxCell id="s2QFNlOFIXtIQs9YiOlL-103" value="不存在" style="edgeLabel;html=1;align=center;verticalAlign=middle;resizable=0;points=[];fontSize=22;fontColor=#000000;" vertex="1" connectable="0" parent="s2QFNlOFIXtIQs9YiOlL-102">
          <mxGeometry x="-0.1333" relative="1" as="geometry">
            <mxPoint as="offset" />
          </mxGeometry>
        </mxCell>
        <mxCell id="s2QFNlOFIXtIQs9YiOlL-105" value="" style="edgeStyle=orthogonalEdgeStyle;rounded=0;orthogonalLoop=1;jettySize=auto;html=1;fontSize=22;fontColor=#000000;" edge="1" parent="1" source="s2QFNlOFIXtIQs9YiOlL-98" target="s2QFNlOFIXtIQs9YiOlL-104">
          <mxGeometry relative="1" as="geometry" />
        </mxCell>
        <mxCell id="s2QFNlOFIXtIQs9YiOlL-106" value="存在" style="edgeLabel;html=1;align=center;verticalAlign=middle;resizable=0;points=[];fontSize=22;fontColor=#000000;" vertex="1" connectable="0" parent="s2QFNlOFIXtIQs9YiOlL-105">
          <mxGeometry x="-0.1333" y="1" relative="1" as="geometry">
            <mxPoint as="offset" />
          </mxGeometry>
        </mxCell>
        <mxCell id="s2QFNlOFIXtIQs9YiOlL-98" value="魔方是否存在" style="rhombus;whiteSpace=wrap;html=1;fontSize=20;fillColor=#f8cecc;strokeColor=#b85450;rounded=0;strokeWidth=1;fontColor=#000000;" vertex="1" parent="1">
          <mxGeometry x="320" y="140" width="80" height="80" as="geometry" />
        </mxCell>
        <mxCell id="s2QFNlOFIXtIQs9YiOlL-101" value="舍弃" style="whiteSpace=wrap;html=1;fontSize=20;fillColor=#f8cecc;strokeColor=#b85450;fontColor=#000000;rounded=0;strokeWidth=1;" vertex="1" parent="1">
          <mxGeometry x="510" y="160" width="50" height="40" as="geometry" />
        </mxCell>
        <mxCell id="s2QFNlOFIXtIQs9YiOlL-104" value="存入Redis" style="whiteSpace=wrap;html=1;fontSize=20;fillColor=#f8cecc;strokeColor=#b85450;fontColor=#000000;rounded=0;strokeWidth=1;" vertex="1" parent="1">
          <mxGeometry x="300" y="310" width="120" height="30" as="geometry" />
        </mxCell>
        <mxCell id="s2QFNlOFIXtIQs9YiOlL-119" style="edgeStyle=orthogonalEdgeStyle;rounded=0;orthogonalLoop=1;jettySize=auto;html=1;entryX=1;entryY=0.5;entryDx=0;entryDy=0;fontSize=22;fontColor=#000000;" edge="1" parent="1" source="s2QFNlOFIXtIQs9YiOlL-107" target="s2QFNlOFIXtIQs9YiOlL-114">
          <mxGeometry relative="1" as="geometry" />
        </mxCell>
        <mxCell id="s2QFNlOFIXtIQs9YiOlL-107" value="获取用户画像结果" style="whiteSpace=wrap;html=1;fontSize=20;fillColor=#f8cecc;strokeColor=#b85450;fontColor=#000000;rounded=0;strokeWidth=1;" vertex="1" parent="1">
          <mxGeometry x="50" y="470" width="120" height="50" as="geometry" />
        </mxCell>
        <mxCell id="s2QFNlOFIXtIQs9YiOlL-111" value="SCF-resumeDao" style="rounded=0;whiteSpace=wrap;html=1;dashed=1;strokeColor=#97D077;align=left;verticalAlign=top;fontSize=22;fontColor=#FFB366;strokeWidth=3;" vertex="1" parent="1">
          <mxGeometry x="-430" y="563" width="200" height="210" as="geometry" />
        </mxCell>
        <mxCell id="s2QFNlOFIXtIQs9YiOlL-112" value="SCF-resumeDao" style="rounded=0;whiteSpace=wrap;html=1;dashed=1;strokeColor=#97D077;align=left;verticalAlign=top;fontSize=22;fontColor=#FFB366;strokeWidth=3;" vertex="1" parent="1">
          <mxGeometry x="-205" y="563" width="200" height="210" as="geometry" />
        </mxCell>
        <mxCell id="s2QFNlOFIXtIQs9YiOlL-113" value="SCF-resumeDao" style="rounded=0;whiteSpace=wrap;html=1;dashed=1;strokeColor=#97D077;align=left;verticalAlign=top;fontSize=22;fontColor=#FFB366;strokeWidth=3;" vertex="1" parent="1">
          <mxGeometry x="-430" y="430" width="200" height="113" as="geometry" />
        </mxCell>
        <mxCell id="s2QFNlOFIXtIQs9YiOlL-121" style="edgeStyle=orthogonalEdgeStyle;rounded=0;orthogonalLoop=1;jettySize=auto;html=1;fontSize=22;fontColor=#000000;" edge="1" parent="1" source="s2QFNlOFIXtIQs9YiOlL-114" target="s2QFNlOFIXtIQs9YiOlL-116">
          <mxGeometry relative="1" as="geometry" />
        </mxCell>
        <mxCell id="s2QFNlOFIXtIQs9YiOlL-124" style="edgeStyle=orthogonalEdgeStyle;rounded=0;orthogonalLoop=1;jettySize=auto;html=1;fontSize=22;fontColor=#000000;" edge="1" parent="1" source="s2QFNlOFIXtIQs9YiOlL-114" target="s2QFNlOFIXtIQs9YiOlL-115">
          <mxGeometry relative="1" as="geometry" />
        </mxCell>
        <mxCell id="s2QFNlOFIXtIQs9YiOlL-114" value="转换魔方简历实体" style="whiteSpace=wrap;html=1;fontSize=20;fillColor=#f8cecc;strokeColor=#b85450;rounded=0;" vertex="1" parent="1">
          <mxGeometry x="-195" y="470" width="180" height="50" as="geometry" />
        </mxCell>
        <mxCell id="s2QFNlOFIXtIQs9YiOlL-127" style="edgeStyle=orthogonalEdgeStyle;rounded=0;orthogonalLoop=1;jettySize=auto;html=1;entryX=0.594;entryY=-0.004;entryDx=0;entryDy=0;entryPerimeter=0;fontSize=22;fontColor=#000000;" edge="1" parent="1" source="s2QFNlOFIXtIQs9YiOlL-115" target="s2QFNlOFIXtIQs9YiOlL-117">
          <mxGeometry relative="1" as="geometry" />
        </mxCell>
        <mxCell id="s2QFNlOFIXtIQs9YiOlL-115" value="" style="aspect=fixed;html=1;points=[];align=center;image;fontSize=12;image=img/lib/azure2/databases/Azure_Database_MySQL_Server.svg;dashed=1;strokeColor=#FFB366;fontColor=#000000;" vertex="1" parent="1">
          <mxGeometry x="-328" y="463" width="48" height="64" as="geometry" />
        </mxCell>
        <mxCell id="s2QFNlOFIXtIQs9YiOlL-122" style="edgeStyle=orthogonalEdgeStyle;rounded=0;orthogonalLoop=1;jettySize=auto;html=1;entryX=1;entryY=0.5;entryDx=0;entryDy=0;fontSize=22;fontColor=#000000;" edge="1" parent="1" source="s2QFNlOFIXtIQs9YiOlL-116" target="s2QFNlOFIXtIQs9YiOlL-117">
          <mxGeometry relative="1" as="geometry" />
        </mxCell>
        <mxCell id="s2QFNlOFIXtIQs9YiOlL-116" value="&lt;span style=&quot;font-size: 19px;&quot;&gt;WCS&lt;/span&gt;" style="sketch=0;outlineConnect=0;fontColor=#232F3E;gradientColor=none;fillColor=#D45B07;strokeColor=none;dashed=0;verticalLabelPosition=bottom;verticalAlign=top;align=center;html=1;fontSize=12;fontStyle=0;aspect=fixed;pointerEvents=1;shape=mxgraph.aws4.ecs_service;" vertex="1" parent="1">
          <mxGeometry x="-129.5" y="593" width="49" height="60.31" as="geometry" />
        </mxCell>
        <mxCell id="s2QFNlOFIXtIQs9YiOlL-123" style="edgeStyle=orthogonalEdgeStyle;rounded=0;orthogonalLoop=1;jettySize=auto;html=1;fontSize=22;fontColor=#000000;" edge="1" parent="1" source="s2QFNlOFIXtIQs9YiOlL-117" target="s2QFNlOFIXtIQs9YiOlL-118">
          <mxGeometry relative="1" as="geometry" />
        </mxCell>
        <mxCell id="s2QFNlOFIXtIQs9YiOlL-117" value="记录日志" style="rounded=0;whiteSpace=wrap;html=1;fontSize=20;fillColor=#f8cecc;strokeColor=#b85450;" vertex="1" parent="1">
          <mxGeometry x="-405" y="603.16" width="170" height="40" as="geometry" />
        </mxCell>
        <mxCell id="s2QFNlOFIXtIQs9YiOlL-118" value="" style="aspect=fixed;html=1;points=[];align=center;image;fontSize=12;image=img/lib/azure2/databases/Azure_Database_MySQL_Server.svg;dashed=1;strokeColor=#FFB366;fontColor=#000000;" vertex="1" parent="1">
          <mxGeometry x="-344" y="693" width="48" height="64" as="geometry" />
        </mxCell>
        <mxCell id="s2QFNlOFIXtIQs9YiOlL-132" value="task-wjob" style="rounded=0;whiteSpace=wrap;html=1;dashed=1;strokeColor=#E5CCFF;align=left;verticalAlign=top;fontSize=22;fontColor=#FFB366;strokeWidth=3;" vertex="1" parent="1">
          <mxGeometry x="250" y="370" width="210" height="180" as="geometry" />
        </mxCell>
        <mxCell id="s2QFNlOFIXtIQs9YiOlL-135" value="" style="edgeStyle=orthogonalEdgeStyle;rounded=0;orthogonalLoop=1;jettySize=auto;html=1;fontSize=22;fontColor=#000000;" edge="1" parent="1" source="s2QFNlOFIXtIQs9YiOlL-133" target="s2QFNlOFIXtIQs9YiOlL-134">
          <mxGeometry relative="1" as="geometry" />
        </mxCell>
        <mxCell id="s2QFNlOFIXtIQs9YiOlL-133" value="redis获取日活用户" style="whiteSpace=wrap;html=1;fontSize=20;fillColor=#f8cecc;strokeColor=#b85450;fontColor=#000000;rounded=0;strokeWidth=1;" vertex="1" parent="1">
          <mxGeometry x="300" y="407" width="120" height="50" as="geometry" />
        </mxCell>
        <mxCell id="s2QFNlOFIXtIQs9YiOlL-136" style="edgeStyle=orthogonalEdgeStyle;rounded=0;orthogonalLoop=1;jettySize=auto;html=1;entryX=1;entryY=0.5;entryDx=0;entryDy=0;fontSize=22;fontColor=#000000;" edge="1" parent="1" source="s2QFNlOFIXtIQs9YiOlL-134" target="s2QFNlOFIXtIQs9YiOlL-107">
          <mxGeometry relative="1" as="geometry" />
        </mxCell>
        <mxCell id="s2QFNlOFIXtIQs9YiOlL-134" value="调用画像服务" style="whiteSpace=wrap;html=1;fontSize=20;fillColor=#f8cecc;strokeColor=#b85450;fontColor=#000000;rounded=0;strokeWidth=1;" vertex="1" parent="1">
          <mxGeometry x="280" y="470" width="160" height="50" as="geometry" />
        </mxCell>
      </root>
    </mxGraphModel>
  </diagram>
</mxfile>
